<svg xmlns="http://www.w3.org/2000/svg" version="1.1" x="0" y="0" width="216" height="26" viewBox="0 0 216 26" enable-background="new 0 0 216 26" xml:space="preserve"><circle fill="#B42E34" cx="214.2" cy="17.8" r="1.8"/><path fill="#FFFFFF" d="M33.6 19.7h-6.2V3.3h5.5c2.6 0 4.8 1.7 4.8 4.4 0 1-0.5 2.2-1.4 2.7 1.4 0.4 2.9 2.3 2.9 4.3C39.2 17.8 36.7 19.7 33.6 19.7zM32.3 6.2H31v3.3h1.3c0.9 0 1.8-0.5 1.8-1.7C34.1 6.7 33.2 6.2 32.3 6.2zM32.9 12.5H31v4.3h1.9c1.2 0 2.4-0.6 2.4-2.1C35.3 13.2 34.2 12.5 32.9 12.5z"/><path fill="#FFFFFF" d="M48.8 19.7l-0.1-1.2c-0.7 0.9-1.8 1.5-3.5 1.5 -2.6 0-4.3-1.6-4.3-4.2V8h3.8v7c0 0.9 0.6 1.6 1.8 1.6 1.2 0 1.9-0.7 1.9-1.7V8h3.8v11.7H48.8z"/><path fill="#FFFFFF" d="M72.5 19.7L69 15v4.7h-3.7V5.7L69 4.4v8.4L72.5 8h4l-4 5.6 4.4 6.1H72.5z"/><path fill="#FFFFFF" d="M114.2 19.7V4.4l2.5-1.2v16.5H114.2z"/><path fill="#FFFFFF" d="M127.3 19.7v-7.5c0-1.2-0.7-2.5-2.7-2.5 -1.9 0-2.8 1.2-2.8 2.5v7.5h-2.4V8h2.1l0.1 1.2c0.9-1 1.8-1.4 3.6-1.4 2.6 0 4.4 1.6 4.4 4.2v7.8H127.3z"/><path fill="#FFFFFF" d="M174.8 18c-2.1 0-4.2-1.5-4.2-4.1 0-2.5 2-4.1 4.1-4.1 0.8 0 1.6 0.1 2.3 0.4l0.4-2c-0.8-0.3-1.8-0.5-2.9-0.5 -3.2 0-6.4 2.3-6.4 6.2 0 3.8 3.2 6.1 6.4 6.1 0.7 0 1.4-0.1 2.1-0.3l0.5-2.2C176.3 17.8 175.6 18 174.8 18z"/><path fill="#FFFFFF" d="M97.2 8l-1.8 4.6c-0.3 0.7-0.5 1.4-0.7 2.2h-0.1c-0.2-0.9-0.5-1.6-0.7-2.3L92.2 8h-3.7l4.4 11.1c-1 2.3-1.9 3.4-3.4 4.1l1.6 2.5c2.4-0.9 4.1-3.2 5.6-7L100.7 8H97.2z"/><path fill="#FFFFFF" d="M87.9 13.5c0.1-0.3 0.1-0.8 0.1-1.2 0-2.4-2-4.7-5.2-4.7 -3.3 0-6.1 2.4-6.1 6.2 0 3.8 3 6.3 6.8 6.3 1.3 0 2.2-0.2 3-0.5l0.3-3.1C86 17 85 17.2 83.9 17.2c-2.1 0-3.2-1.2-3.4-2.2h5.8L87.9 13.5zM84.5 12.6h-4.1c0.3-1.2 1.2-2 2.4-2 1.1 0 1.8 0.8 1.8 1.8C84.5 12.4 84.5 12.5 84.5 12.6z"/><path fill="#FFFFFF" d="M111.9 13.5c0.1-0.3 0.1-0.8 0.1-1.2 0-2.4-2-4.7-5.2-4.7 -3.3 0-6.1 2.4-6.1 6.2 0 3.8 3 6.3 6.8 6.3 1.3 0 2.2-0.2 3-0.5l0.3-3.1c-0.9 0.4-1.8 0.6-2.9 0.6 -2.1 0-3.2-1.2-3.4-2.2h5.8L111.9 13.5zM108.6 12.6h-4.1c0.3-1.2 1.2-2 2.4-2 1.1 0 1.8 0.8 1.8 1.8C108.6 12.4 108.6 12.5 108.6 12.6z"/><path fill="#FFFFFF" d="M149.1 13.2c0.1-0.3 0.1-0.6 0.1-1 0-2.2-1.8-4.4-5.1-4.4 -2.7 0-5.8 2.2-5.8 6.2 0 3.6 2.9 6.1 6.3 6.1 1.3 0 2.2-0.2 2.9-0.5l0.6-2.4c-0.9 0.5-1.9 0.8-3.2 0.8 -2.7 0-4.1-2-4.2-3.5h7.1L149.1 13.2zM146.8 12.6h-5.9c0.3-1.6 1.9-2.8 3.4-2.8 1.5 0 2.6 1.3 2.6 2.5C146.8 12.4 146.8 12.5 146.8 12.6z"/><path fill="#FFFFFF" d="M196.7 19.9h-1L190.8 8h2.4l2.1 5.2c0.3 0.7 0.7 1.7 1 2.6h0c0.3-0.9 0.6-1.8 1-2.6l2.1-5.2h2.2L196.7 19.9z"/><path fill="#FFFFFF" d="M212.4 13.2c0.1-0.3 0.1-0.6 0.1-1 0-2.2-1.8-4.4-5.1-4.4 -2.7 0-5.8 2.2-5.8 6.2 0 3.6 2.9 6.1 6.3 6.1 1.3 0 2.2-0.2 2.9-0.5l0.6-2.4c-0.9 0.5-1.9 0.8-3.2 0.8 -2.7 0-4.1-2-4.2-3.5h7.1L212.4 13.2zM210.1 12.6h-5.9c0.3-1.6 1.9-2.8 3.4-2.8 1.5 0 2.6 1.3 2.6 2.5C210.1 12.4 210.1 12.5 210.1 12.6z"/><path fill="#FFFFFF" d="M61 16.8c-1.8 0-3.3-1.1-3.3-2.9 0-1.8 1.4-2.9 3.2-2.9 0.9 0 1.7 0.2 2.4 0.5l0.3-3.3c-0.9-0.4-2-0.6-3.3-0.6 -3.4 0-6.5 2.4-6.5 6.2 0 3.8 3.1 6.2 6.5 6.2 0.9 0 1.6-0.1 2.3-0.3l0.3-3.3C62.3 16.7 61.7 16.8 61 16.8z"/><path fill="#FFFFFF" d="M137.4 9.9l0.4-1.9h-3.7V4.4l-2.3 1.2v10.7c0 2.3 1.7 3.6 3.8 3.6 0.2 0 0.4 0 0.6 0l0.5-2.1c-0.2 0-0.5 0.1-0.8 0.1 -1 0-1.7-0.5-1.7-1.5V9.9H137.4z"/><path fill="#FFFFFF" d="M184.7 9.9l0.4-1.9h-3.7V4.4l-2.3 1.2v10.7c0 2.3 1.7 3.6 3.8 3.6 0.2 0 0.4 0 0.6 0l0.5-2.1c-0.2 0-0.5 0.1-0.8 0.1 -1 0-1.7-0.5-1.7-1.5V9.9H184.7z"/><path fill="#FFFFFF" d="M153.1 9.9L153 8h-2.2v11.7h2.4v-5.5c0-3 1.8-4.1 3.5-4.3l0.4-2C155.4 7.9 153.8 8.4 153.1 9.9z"/><path fill="#FFFFFF" d="M166.5 16.7V12c0-2.8-1.9-4.2-4.5-4.2 -1 0-2 0.2-2.8 0.5l-0.5 2.4c0.9-0.6 2.1-0.9 3.2-0.9 1.7 0 2.3 0.9 2.3 1.9v0.8l-2.7 0.3c-2 0.2-3.9 1.5-3.9 3.7 0 1.9 1.4 3.6 3.8 3.6 1.3 0 2.5-0.4 3.3-1.5 0.3 0.7 0.9 1.3 1.7 1.5l1.5-1.5C167.1 18.4 166.5 17.8 166.5 16.7zM164.2 15.4c0 1.5-1.5 2.6-2.7 2.6 -0.9 0-1.6-0.7-1.6-1.6 0-0.9 0.6-1.8 2-1.9l2.3-0.2V15.4z"/><rect x="186.8" y="8" fill="#FFFFFF" width="2.4" height="11.7"/><path fill="#FFFFFF" d="M188 3.6c-0.7 0-1.3 0.6-1.3 1.3s0.6 1.3 1.3 1.3c0.7 0 1.3-0.6 1.3-1.3S188.7 3.6 188 3.6z"/><path fill="#B42E34" d="M21.5 6.7c-1.2 3-5.4 4.3-9.7 2.8C7.6 8 5 4.5 5.9 1.3 3.5 2.6 1.6 4.8 0.6 7.6c-2 5.8 1.1 12.3 7 14.3 5.8 2 12.3-1.1 14.3-7C22.8 12.1 22.6 9.2 21.5 6.7z"/><path fill="none" d="M14.9 0.6c-3.1-1.1-6.3-0.7-8.9 0.7C5 4.5 7.6 8 11.8 9.5c4.3 1.5 8.4 0.2 9.7-2.8C20.3 3.9 18 1.7 14.9 0.6z"/><path fill="#B42E34" d="M14.9 0.6c-2.8-1-5.7-0.4-6.3 1.4 -0.6 1.7 1.3 4 4.1 5 2.8 1 5.7 0.4 6.3-1.4C19.6 3.9 17.7 1.6 14.9 0.6z"/></svg>